<svg width="38" height="38" viewBox="0 0 38 38" fill="none" xmlns="http://www.w3.org/2000/svg">
<path d="M13.3 26.9167L19 21.2167L24.7 26.9167L26.9166 24.7001L21.2166 19.0001L26.9166 13.3001L24.7 11.0834L19 16.7834L13.3 11.0834L11.0833 13.3001L16.7833 19.0001L11.0833 24.7001L13.3 26.9167ZM19 34.8334C16.8097 34.8334 14.7513 34.4178 12.825 33.5865C10.8986 32.7553 9.22288 31.6272 7.79788 30.2022C6.37288 28.7772 5.24475 27.1015 4.4135 25.1751C3.58225 23.2487 3.16663 21.1904 3.16663 19.0001C3.16663 16.8098 3.58225 14.7515 4.4135 12.8251C5.24475 10.8987 6.37288 9.223 7.79788 7.798C9.22288 6.373 10.8986 5.24487 12.825 4.41362C14.7513 3.58237 16.8097 3.16675 19 3.16675C21.1902 3.16675 23.2486 3.58237 25.175 4.41362C27.1013 5.24487 28.777 6.373 30.202 7.798C31.627 9.223 32.7552 10.8987 33.5864 12.8251C34.4177 14.7515 34.8333 16.8098 34.8333 19.0001C34.8333 21.1904 34.4177 23.2487 33.5864 25.1751C32.7552 27.1015 31.627 28.7772 30.202 30.2022C28.777 31.6272 27.1013 32.7553 25.175 33.5865C23.2486 34.4178 21.1902 34.8334 19 34.8334ZM19 31.6667C22.5361 31.6667 25.5312 30.4397 27.9854 27.9855C30.4395 25.5313 31.6666 22.5362 31.6666 19.0001C31.6666 15.464 30.4395 12.4688 27.9854 10.0147C25.5312 7.5605 22.5361 6.33341 19 6.33341C15.4638 6.33341 12.4687 7.5605 10.0145 10.0147C7.56038 12.4688 6.33329 15.464 6.33329 19.0001C6.33329 22.5362 7.56038 25.5313 10.0145 27.9855C12.4687 30.4397 15.4638 31.6667 19 31.6667Z" fill="#E41515"/>
</svg>
